# xmcd
#
# Track frame offsets: 
#        150
#        16606
#        38857
#        49013
#        62746
#        75828
#        96718
#        115330
#        132915
#        154709
#        173350
#        191024
#
# Disc length: 2860 seconds
#
# Revision: 0
# Processed by: cddbd v1.5.1PL0 Copyright (c) Steve Scherf et al.
# Submitted via: ExactAudioCopy v0.95a3
#
DISCID=8e0b2a0c
DTITLE=Son Volt - Live - 19991118 - Columbia, MO [CD1 of 2)
DYEAR=1999
DGENRE=Alternative Country
TTITLE0=Question
TTITLE1=Caryatid Easy
TTITLE2=Flow
TTITLE3=Right On Through
TTITLE4=Blind Hope
TTITLE5=Tear Stained Eye
TTITLE6=Medicine Hat
TTITLE7=Hanging Blue Side
TTITLE8=Creosote
TTITLE9=Back Into Your World
TTITLE10=Picking Up The Signal
TTITLE11=Strands
EXTD=Recorded live at Mississippi Nights - Columbia, MO on November 18
EXTD=, 1999.\n\nAudience recording.
EXTT0=
EXTT1=
EXTT2=
EXTT3=
EXTT4=
EXTT5=
EXTT6=
EXTT7=
EXTT8=
EXTT9=
EXTT10=
EXTT11=
PLAYORDER=
